<?xml version="1.0" encoding="UTF-8" standalone="no"?>
<!-- Created with Inkscape (http://www.inkscape.org/) -->

<svg
   width="50mm"
   height="50mm"
   viewBox="0 0 50 50"
   version="1.1"
   id="svg5"
   inkscape:version="1.2.2 (732a01da63, 2022-12-09)"
   sodipodi:docname="01_logo_ciência,flora&amp;saúde_Davi_Raquel.svg"
   xmlns:inkscape="http://www.inkscape.org/namespaces/inkscape"
   xmlns:sodipodi="http://sodipodi.sourceforge.net/DTD/sodipodi-0.dtd"
   xmlns:xlink="http://www.w3.org/1999/xlink"
   xmlns="http://www.w3.org/2000/svg"
   xmlns:svg="http://www.w3.org/2000/svg">
  <sodipodi:namedview
     id="namedview7"
     pagecolor="#ffffff"
     bordercolor="#000000"
     borderopacity="0.25"
     inkscape:showpageshadow="2"
     inkscape:pageopacity="0.0"
     inkscape:pagecheckerboard="0"
     inkscape:deskcolor="#d1d1d1"
     inkscape:document-units="mm"
     showgrid="false"
     inkscape:zoom="5.6568543"
     inkscape:cx="94.398755"
     inkscape:cy="98.729784"
     inkscape:window-width="1600"
     inkscape:window-height="838"
     inkscape:window-x="-8"
     inkscape:window-y="-8"
     inkscape:window-maximized="1"
     inkscape:current-layer="layer1" />
  <defs
     id="defs2">
    <linearGradient
       inkscape:collect="always"
       id="linearGradient7058">
      <stop
         style="stop-color:#008000;stop-opacity:1;"
         offset="0"
         id="stop7054" />
      <stop
         style="stop-color:#67ff67;stop-opacity:1;"
         offset="1"
         id="stop7151" />
    </linearGradient>
    <rect
       x="80"
       y="47.232749"
       width="108.97638"
       height="70.017251"
       id="rect5127" />
    <linearGradient
       inkscape:collect="always"
       xlink:href="#linearGradient7058"
       id="linearGradient7060"
       x1="19.371752"
       y1="12.384565"
       x2="28.44697"
       y2="25.598007"
       gradientUnits="userSpaceOnUse" />
  </defs>
  <g
     inkscape:label="Camada 1"
     inkscape:groupmode="layer"
     id="layer1">
    <g
       id="g9487"
       transform="matrix(1.1493603,0,0,1.1493603,-0.30150019,-0.25923383)">
      <g
         id="g5071"
         transform="matrix(1.9100885,0,0,1.9100885,-34.686656,-17.437905)">
        <path
           id="path4388"
           style="fill:url(#linearGradient7060);fill-opacity:1;stroke-width:0.264583"
           d="m 24.091163,15.671998 a 4.9645796,4.9645796 0 0 0 -4.874637,4.961454 4.9645796,4.9645796 0 0 0 4.964554,4.964555 4.9645796,4.9645796 0 0 0 4.26589,-2.428792 4.7152209,4.7152209 0 0 1 -3.774447,1.894458 4.7152209,4.7152209 0 0 1 -4.714957,-4.715475 4.7152209,4.7152209 0 0 1 4.133597,-4.6762 z" />
        <g
           id="g5056"
           transform="translate(-0.53441641,-0.08237777)">
          <g
             id="g4384">
            <g
               id="g4321"
               transform="translate(0.00342791,-0.41954195)">
              <path
                 id="path489"
                 style="fill:#00de00;fill-opacity:1;stroke-width:0.226911"
                 d="m 24.728496,18.658322 a 5.1324295,3.8729578 0 0 0 -1.285153,2.55978 5.1324295,3.8729578 0 0 0 1.283113,2.557857 5.1324295,3.8729578 0 0 0 1.283112,-2.557857 5.1324295,3.8729578 0 0 0 -1.281072,-2.55978 z" />
              <path
                 id="path1283"
                 style="fill:#2cc12c;fill-opacity:1;stroke:none;stroke-width:0.22837"
                 d="m 28.233708,20.147454 a 5.1986299,3.8729578 45 0 0 -2.7305,0.889576 5.1986299,3.8729578 45 0 0 -0.889678,2.727678 5.1986299,3.8729578 45 0 0 2.727678,-0.889678 5.1986299,3.8729578 45 0 0 0.8925,-2.727576 z"
                 inkscape:transform-center-x="-1.707039"
                 inkscape:transform-center-y="-1.7009567" />
              <path
                 id="path1285"
                 style="fill:#008000;fill-opacity:1;stroke:#008000;stroke-width:0.008;stroke-dasharray:none;stroke-opacity:1"
                 inkscape:transform-center-x="-1.707039"
                 inkscape:transform-center-y="-1.7009567"
                 d="m 25.960178,20.66695 a 5.1986299,3.8729578 45 0 0 -0.45682,0.370003 5.1986299,3.8729578 45 0 0 -0.893485,2.671155 5.1986299,3.8729578 0 0 0 0.06821,0.06046 5.1986299,3.8729578 45 0 0 0.07855,0.0047 5.1986299,3.8729578 0 0 0 1.262972,-2.524911 5.1986299,3.8729578 0 0 0 -0.05943,-0.58136 z" />
              <path
                 id="path2016"
                 style="fill:#2cc12c;fill-opacity:1;stroke-width:0.22837"
                 d="m 21.219203,20.137465 a 3.8729578,5.1986299 45 0 1 2.7305,0.889576 3.8729578,5.1986299 45 0 1 0.889678,2.727678 3.8729578,5.1986299 45 0 1 -2.727678,-0.889678 3.8729578,5.1986299 45 0 1 -0.8925,-2.727576 z"
                 inkscape:transform-center-x="1.7070395"
                 inkscape:transform-center-y="-1.7009567" />
              <path
                 id="path2018"
                 style="fill:#008000;fill-opacity:1;stroke:#008000;stroke-width:0.008;stroke-miterlimit:3.9;stroke-dasharray:none;stroke-opacity:1"
                 inkscape:transform-center-x="1.707039"
                 inkscape:transform-center-y="-1.7009332"
                 d="m 23.492733,20.656961 a 3.8729578,5.1986299 45 0 1 0.45682,0.370003 3.8729578,5.1986299 45 0 1 0.893485,2.671155 5.1986299,3.8729578 0 0 1 -0.06821,0.06046 3.8729578,5.1986299 45 0 1 -0.07855,0.0047 5.1986299,3.8729578 0 0 1 -1.262972,-2.524911 5.1986299,3.8729578 0 0 1 0.05943,-0.58136 z" />
            </g>
            <g
               id="g4314"
               transform="translate(0.01686478,-0.02996729)">
              <rect
                 style="fill:#ffffff;fill-opacity:1;stroke-width:0.264583"
                 id="rect4250"
                 width="0.25971645"
                 height="1.068833"
                 x="24.58316"
                 y="19.678514" />
              <rect
                 style="fill:#ffffff;fill-opacity:1;stroke-width:0.264583"
                 id="rect4306"
                 width="0.25971645"
                 height="1.068833"
                 x="-20.342789"
                 y="24.178602"
                 transform="rotate(-90)" />
            </g>
          </g>
          <path
             style="fill:#008000;fill-opacity:1;stroke:none;stroke-width:0.0094914;stroke-miterlimit:3.9;stroke-dasharray:none;stroke-opacity:1"
             d="m 24.892755,21.536438 c -0.06302,0.08368 -0.08398,0.197832 -0.1212,0.302599 -0.01478,0.04162 -0.09027,0.148433 -0.09922,0.186214 -0.0035,0.01472 0.0049,0.03267 0,0.04655 -0.0025,0.0069 -0.01264,-0.0055 -0.01654,0 -0.0045,0.0063 -0.045,0.08012 -0.04961,0.09312 -0.01546,0.04351 0,0.285433 0,0.349152 0,0.165288 -0.02657,0.430216 0.01654,0.581918 0.0083,0.02918 0.01324,0.135018 0.01654,0.139663 0.0039,0.0055 0.01161,-0.0035 0.01654,0 0.01764,0.01238 0.01543,0.03413 0.03307,0.04655 0.01041,0.0073 0.08817,0.03105 0.09922,0.02328 0.04167,-0.02932 0.184389,-0.243275 0.198437,-0.302598 0.01068,-0.04511 -0.0057,-0.06935 0.01654,-0.116386 0.0171,-0.0361 0.04164,-0.07151 0.04961,-0.116374 0.0027,-0.01504 -0.0041,-0.03215 0,-0.04655 -0.0092,-0.05766 0.03728,-0.05842 0.04961,-0.09312 0.0049,-0.01393 -0.0035,-0.03183 0,-0.04655 0.03993,-0.168602 -0.0048,0.0367 0.03307,-0.06983 0.01072,-0.03018 0.0043,-0.137185 0.01654,-0.162938 0.0086,-0.01825 0.0261,-0.02692 0.03307,-0.04655 0.0076,-0.02137 0.0076,-0.188121 0,-0.209492 -0.0025,-0.0069 -0.01161,0.0035 -0.01654,0 -0.01395,-0.0099 -0.01828,-0.03962 -0.03307,-0.04655 -0.01046,-0.0049 -0.02321,0.0069 -0.03307,0 -0.01432,-0.01015 -0.0099,-0.07434 -0.01654,-0.09312 -0.02135,-0.06009 -0.02943,0.01535 -0.04961,-0.06983 -0.0094,-0.03965 0.01317,-0.102584 0,-0.139664 -0.0099,-0.02793 -0.03969,-0.04191 -0.04961,-0.06983 -0.0044,-0.01252 -0.01034,-0.06236 -0.01654,-0.06983 -0.02324,-0.02802 -0.05149,-0.04655 -0.07724,-0.06983 z"
             id="path4836" />
        </g>
      </g>
      <text
         xml:space="preserve"
         transform="matrix(0.35303185,0,0,0.35303185,-7.2282542,-1.9142968)"
         id="text5125"
         style="font-style:normal;font-variant:normal;font-weight:900;font-stretch:normal;font-size:12px;font-family:Arial;-inkscape-font-specification:'Arial, Heavy';font-variant-ligatures:normal;font-variant-caps:normal;font-variant-numeric:normal;font-variant-east-asian:normal;white-space:pre;shape-inside:url(#rect5127);fill:#00bd00;fill-opacity:1;stroke:#00bd00;stroke-width:0.377953;stroke-miterlimit:3.9;stroke-dasharray:none;stroke-opacity:1"><tspan
           x="80"
           y="57.991369"
           id="tspan10604">CIÊNCIA,
</tspan><tspan
           x="80"
           y="72.991369"
           id="tspan10606">FLORA &amp;
</tspan><tspan
           x="80"
           y="87.991369"
           id="tspan10608">SAÚDE</tspan></text>
    </g>
  </g>
</svg>
